# xmcd CD database file
#
# Track frame offsets:
#	150
#	15939
#	28125
#	41071
#	62524
#	83878
#	99500
#	111805
#	129534
#	149389
#	163260
#	170554
#
# Disc length: 2394 seconds
#
# Revision: 0
# Processed by: cddbd v1.5.2PL0 Copyright (c) Steve Scherf et al.
# Submitted via: CDex 1.51
#
DISCID=9d09580c
DTITLE=Bela - Hole and corner
DYEAR=2006
DGENRE=Jazz
TTITLE0=Ticket for a train
TTITLE1=Bled
TTITLE2=Stones
TTITLE3=Tune
TTITLE4=Down
TTITLE5=Weight
TTITLE6=Time
TTITLE7=Jerome
TTITLE8=Feels alright
TTITLE9=Change
TTITLE10=Drive
TTITLE11=Apogee road
EXTD=YEAR: 2006
EXTT0=
EXTT1=
EXTT2=
EXTT3=
EXTT4=
EXTT5=
EXTT6=
EXTT7=
EXTT8=
EXTT9=
EXTT10=
EXTT11=
PLAYORDER=
